<?xml version="1.0" standalone="no"?>
<!DOCTYPE svg PUBLIC "-//W3C//DTD SVG 20010904//EN"
 "http://www.w3.org/TR/2001/REC-SVG-20010904/DTD/svg10.dtd">
<svg version="1.0" xmlns="http://www.w3.org/2000/svg"
 width="700.000000pt" height="700.000000pt" viewBox="0 0 700.000000 700.000000"
 preserveAspectRatio="xMidYMid meet">
<metadata>
Created by potrace 1.11, written by Peter Selinger 2001-2013
</metadata>
<g transform="translate(0.000000,700.000000) scale(0.100000,-0.100000)"
fill="#000000" stroke="none">
<path d="M3265 6994 c-484 -48 -778 -120 -1160 -283 -794 -340 -1476 -1022
-1816 -1816 -200 -469 -284 -881 -284 -1395 0 -514 84 -926 284 -1395 340
-794 1022 -1476 1816 -1816 469 -200 881 -284 1395 -284 514 0 926 84 1395
284 794 340 1476 1022 1816 1816 200 469 284 881 284 1395 0 514 -84 926 -284
1395 -340 794 -1022 1476 -1816 1816 -326 139 -612 216 -980 265 -104 14 -564
27 -650 18z m-261 -1744 c48 -18 56 -52 56 -250 l0 -180 440 0 440 0 0 189 c0
186 0 190 24 218 l24 28 152 3 c240 5 240 6 240 -257 l0 -179 203 -4 c194 -3
204 -4 258 -29 65 -31 129 -90 158 -147 41 -80 42 -117 39 -1407 l-3 -1240
-26 -55 c-29 -63 -95 -132 -151 -161 -21 -11 -73 -24 -116 -30 -50 -6 -503 -9
-1302 -7 l-1225 3 -47 22 c-109 50 -180 137 -198 244 -8 45 -10 437 -8 1309
l3 1245 23 49 c31 69 65 110 119 147 69 48 132 59 336 59 l177 0 0 183 c0 195
6 222 50 244 30 15 296 18 334 3z"/>
<path d="M2290 3129 c0 -971 1 -1033 18 -1045 14 -11 231 -13 1193 -14 1127 0
1177 1 1192 18 16 17 17 104 17 1045 l0 1027 -1210 0 -1210 0 0 -1031z m1826
611 c33 -13 180 -154 200 -192 8 -15 14 -35 14 -45 0 -11 -213 -231 -513 -531
-479 -478 -515 -512 -547 -512 -32 0 -56 21 -317 283 -245 244 -283 286 -283
312 0 25 18 48 103 133 95 95 105 102 142 102 39 1 46 -5 198 -161 l158 -162
72 69 c40 38 218 214 397 391 179 178 331 323 337 323 7 0 24 -5 39 -10z"/>
</g>
</svg>
